# xmcd CD database file
#
# Track frame offsets:
#	150
#	12722
#	28070
#	41685
#	53447
#	65115
#	83772
#	101337
#	116192
#	132652
#	146025
#	161575
#	170882
#	185580
#	197025
#
# Disc length: 2803 seconds
#
# Revision: 2
# Processed by: cddbd v1.5.2PL0 Copyright (c) Steve Scherf et al.
# Submitted via: CDex 1.51
#
DISCID=e10af10f
DTITLE=Hillbilly Idol - Hillbilly Idol
DYEAR=2004
DGENRE=Country
TTITLE0=Smack Dab In The Middle Of Love
TTITLE1=No Time Like The Past
TTITLE2=I Don't Think ABout You Anymore
TTITLE3=She Didn't Even Know I Was Gone
TTITLE4=Four Brothers
TTITLE5=Hillbilly Polka
TTITLE6=Late In The Day
TTITLE7=Dixie Highway Home
TTITLE8=Fingertips
TTITLE9=Between Here And Heaven And Gone
TTITLE10=No More To Lose
TTITLE11=Radio Flyer
TTITLE12=One Step Forward
TTITLE13=Hurt Heart Broke
TTITLE14=Sirocco
EXTD=YEAR: 2004
EXTT0=
EXTT1=
EXTT2=
EXTT3=
EXTT4=
EXTT5=
EXTT6=
EXTT7=
EXTT8=
EXTT9=
EXTT10=
EXTT11=
EXTT12=
EXTT13=
EXTT14=
PLAYORDER=
